PathFileType	3	(X/Y/Z)	E:\ViconData\BIOM9541 2025\Week 7\Wed1100\Hanif deep squat 5 Squat 01.trc
DataRate	CameraRate	NumFrames	NumMarkers	Units	OrigDataRate	OrigDataStartFrame	OrigNumFrames
200.0	200.0	15	19	mm	200.0	1274	1698	
Frame#	Time	C7			CLAV			RBAK			LASI			RASI			LPSI			RPSI			LTHI			LKNE			LTIB			LANK			LHEE			LTOE			RTHI			RKNE			RTIB			RANK			RHEE			RTOE			
		X1	Y1	Z1	X2	Y2	Z2	X3	Y3	Z3	X4	Y4	Z4	X5	Y5	Z5	X6	Y6	Z6	X7	Y7	Z7	X8	Y8	Z8	X9	Y9	Z9	X10	Y10	Z10	X11	Y11	Z11	X12	Y12	Z12	X13	Y13	Z13	X14	Y14	Z14	X15	Y15	Z15	X16	Y16	Z16	X17	Y17	Z17	X18	Y18	Z18	X19	Y19	Z19	
1274	6.365	266.66248	809.60803	-1220.8783	138.81865	702.15802	-1207.0621	299.97479	730.44385	-1366.623	301.4708	369.2327	-1083.5959	281.7674	411.5909	-1345.1207	462.7108	451.3722	-1172.7183	458.7571	447.8837	-1243.7271	229.84866	400.6442	-914.81323	119.01445	354.51187	-846.52966	212.4865	179.61189	-902.20135	298.03894	62.289898	-979.39325	315.55319	54.966171	-1041.0103	159.72905	39.56118	-943.7475	343.16351	410.05072	-1414.5262	105.45389	328.33585	-1569.313	135.05203	253.1153	-1553.9607	287.85974	67.529015	-1433.4948	310.116	55.481045	-1356.5846	163.03816	40.018978	-1469.2399	
1275	6.37	266.59763	808.8042	-1220.9507	138.82413	701.38635	-1206.8827	299.89465	729.7843	-1366.6549	301.7209	368.9505	-1082.0759	281.9441	410.947	-1345.0624	462.9548	450.7968	-1172.6737	458.7974	447.874	-1239.5909	230.69084	400.48792	-914.76685	119.79005	354.76337	-846.2738	212.87329	179.67145	-902.10468	298.09482	62.256779	-979.28723	315.76843	55.012543	-1040.9492	159.78967	39.61113	-943.68109	343.54785	409.63611	-1414.3486	105.86668	328.54523	-1569.5208	135.35185	253.30818	-1554.1128	287.85046	67.529495	-1433.5061	310.12625	55.467911	-1356.5254	163.02631	40.05212	-1469.2247	
1276	6.375	266.53873	808.16779	-1220.9141	138.82526	700.50568	-1206.7126	299.7778	729.0304	-1366.6458	301.9804	368.2113	-1082.0279	282.1361	410.4458	-1345.0728	463.1978	450.1113	-1172.5087	459.0161	447.1912	-1239.5363	231.52797	400.49799	-914.51178	120.59022	354.95853	-846.0705	213.24377	179.7908	-901.94592	298.1987	62.249027	-979.19122	315.91251	55.066143	-1040.9454	159.87082	39.639427	-943.64819	344.00958	409.25809	-1414.1736	106.27419	328.67496	-1569.6812	135.69604	253.47081	-1554.2721	287.89374	67.538116	-1433.5201	310.2186	55.490479	-1356.5747	163.05011	40.080345	-1469.2388	
1277	6.38	266.46082	807.4173	-1220.8917	138.838	699.83051	-1206.5684	299.74493	728.36682	-1366.7032	302.1455	367.2767	-1081.7756	281.9385	409.4522	-1344.0852	463.5154	449.3773	-1172.5797	459.2809	446.5024	-1239.6062	232.35066	400.39569	-914.56592	121.32578	355.21643	-845.80865	213.58864	179.88252	-901.72705	298.73404	62.442184	-979.26709	315.88837	54.946587	-1040.8533	159.97571	39.644348	-943.57727	344.44882	408.86084	-1414.0375	106.74707	328.81973	-1569.8567	136.04459	253.54457	-1554.3944	288.00159	67.505638	-1433.5602	310.30289	55.448612	-1356.6632	163.12276	40.096348	-1469.2717	
1278	6.385	266.4838	806.7868	-1221.0581	138.91096	699.13757	-1206.6639	299.77292	727.73499	-1366.8064	302.5545	366.6678	-1082.1774	282.5366	409.2211	-1344.8728	463.7828	448.7959	-1172.8032	459.5033	445.8223	-1239.7487	233.24861	400.49274	-914.26044	122.06038	355.46533	-845.47162	213.94084	180.05109	-901.50757	298.47696	62.169857	-979.18536	316.04254	54.910057	-1040.8301	160.10469	39.650593	-943.62091	344.89124	408.50449	-1413.9001	107.24611	328.90466	-1570.005	136.39236	253.58322	-1554.5208	288.11493	67.426559	-1433.6047	310.39105	55.375904	-1356.7734	163.19234	40.110291	-1469.3706	
1279	6.39	266.44812	806.19354	-1221.1913	138.97174	698.38763	-1206.8337	299.70416	727.08142	-1366.8826	302.8244	365.616	-1083.7944	282.7448	408.6692	-1344.8778	464.0984	448.1931	-1173.1501	459.8341	444.7371	-1243.8553	234.01801	400.45123	-913.97229	122.83208	355.75531	-845.16382	214.22205	180.14813	-901.3125	298.6019	62.131699	-979.17224	316.11008	54.875992	-1040.8359	160.22594	39.710968	-943.76154	345.30179	408.13333	-1413.7721	107.66941	329.03491	-1570.2096	136.70981	253.69244	-1554.7118	288.18597	67.352844	-1433.6573	310.45511	55.33923	-1356.8602	163.22667	40.106743	-1469.4525	
1280	6.395	266.32068	805.50073	-1221.2802	138.97935	697.71283	-1206.9291	299.66013	726.495	-1366.9503	303.0009	365.3549	-1082.4447	282.9153	408.178	-1344.8809	464.2238	447.6243	-1173.0887	459.8305	444.7063	-1240.1261	234.80989	400.26721	-913.97858	123.51941	355.95734	-844.86383	214.54459	180.19276	-901.20477	298.66071	62.11586	-979.11798	316.08948	54.898048	-1040.8075	160.25475	39.739407	-943.7663	345.68521	407.78082	-1413.6606	108.02246	329.15399	-1570.4268	136.96126	253.80045	-1554.8734	288.18442	67.320251	-1433.7175	310.42795	55.329079	-1356.8608	163.25507	40.120663	-1469.5082	
1281	6.4	266.24866	804.96008	-1221.3428	139.03625	696.99384	-1207.0199	299.61472	726.00195	-1366.9806	303.183	364.7954	-1082.3487	283.0725	407.6792	-1344.8049	464.4028	447.1304	-1173.0073	459.9366	444.2153	-1239.9781	235.51407	400.26303	-913.60876	124.19785	356.05884	-844.57269	214.85555	180.27281	-901.01996	298.66379	61.589417	-979.27246	316.07376	54.927723	-1040.731	160.24411	39.802464	-943.74353	345.99753	407.44547	-1413.4912	108.35564	329.34625	-1570.5854	137.17885	253.9994	-1555.0348	288.17096	67.362198	-1433.7473	310.39874	55.393375	-1356.7589	163.26416	40.203037	-1469.5477	
1282	6.405	266.12442	804.46033	-1221.301	139.02463	696.35553	-1206.9714	299.51138	725.44073	-1367.0267	303.3507	364.318	-1082.2413	283.2439	407.2584	-1344.7971	464.5055	446.718	-1172.7993	460.0668	443.7632	-1239.8706	236.20932	400.25519	-913.35614	124.89426	356.31647	-844.21881	215.20892	180.32347	-900.8905	298.71677	62.078053	-978.94537	316.01779	54.908661	-1040.6224	160.22141	39.885258	-943.71271	346.33429	407.14648	-1413.3243	108.68421	329.61331	-1570.7147	137.40704	254.22636	-1555.1404	288.15118	67.414688	-1433.7617	310.3634	55.433903	-1356.6631	163.26117	40.271004	-1469.5642	
1283	6.41	265.99197	803.84155	-1221.3088	139.03197	695.77155	-1206.9987	299.34396	724.94458	-1366.9962	303.5639	363.7516	-1082.2094	283.3923	406.7999	-1344.7314	464.6876	446.2127	-1172.7693	460.2716	443.2669	-1239.8352	236.9243	400.10355	-913.32507	125.50942	356.48431	-843.94263	215.4977	180.42735	-900.66864	298.77509	62.042107	-978.86798	316.08142	54.967846	-1040.5997	160.2308	39.922134	-943.59283	346.63333	406.84637	-1413.1536	109.04298	329.79724	-1570.7546	137.60641	254.36624	-1555.1851	288.17349	67.387695	-1433.76	310.07965	55.576942	-1356.8694	163.28023	40.266518	-1469.5371	
1284	6.415	265.91232	803.28796	-1221.3214	138.97606	695.09973	-1206.9884	299.25888	724.49701	-1366.9656	303.8117	363.1219	-1082.196	283.5725	406.258	-1344.6108	464.9217	445.6529	-1172.7831	460.4828	442.7408	-1239.8656	237.59386	400.08511	-913.04199	126.17102	356.61252	-843.69055	215.7746	180.43321	-900.508	298.83347	61.923222	-978.80322	316.1539	54.950111	-1040.5559	160.35988	39.897392	-943.59576	346.99414	406.47189	-1412.9576	109.41425	329.86346	-1570.7725	137.8714	254.4521	-1555.1925	288.22647	67.322578	-1433.7448	310.44705	55.400814	-1356.7275	163.29759	40.211491	-1469.4807	
1285	6.42	265.86804	802.85693	-1221.2888	138.98001	694.47681	-1206.8065	299.24817	724.00189	-1366.9758	304.0722	362.6292	-1082.1414	283.7297	405.9708	-1344.6104	465.1844	445.2103	-1172.7415	460.7329	442.2562	-1239.7028	238.23808	400.11316	-912.77985	126.78796	356.72742	-843.36603	216.05663	180.42435	-900.35852	298.96005	61.865505	-978.75311	316.1944	54.932354	-1040.553	160.50252	39.926167	-943.5293	347.39774	406.14893	-1412.7656	109.7263	329.97421	-1570.7305	138.1011	254.54375	-1555.1835	288.2652	67.310509	-1433.7363	310.31152	55.483616	-1356.9932	163.33073	40.20956	-1469.4528	
1286	6.425	265.76056	802.45526	-1221.1318	138.99635	693.98383	-1206.3922	299.17133	723.54382	-1366.9849	304.3295	362.1642	-1081.9639	283.9179	405.5656	-1344.5095	465.4442	444.8173	-1172.5795	460.9274	441.8201	-1239.4436	238.83055	399.9581	-912.78876	127.38608	356.85168	-843.0625	216.33946	180.39876	-900.22308	299.05765	61.84037	-978.65161	316.26505	54.904011	-1040.5146	160.67685	39.955799	-943.40179	347.79944	405.89288	-1412.5629	110.02504	330.18787	-1570.7021	138.31673	254.7422	-1555.1741	288.32098	67.358215	-1433.7025	310.38806	55.474461	-1356.9319	163.33521	40.252228	-1469.3889	
1287	6.43	265.72598	802.00177	-1221.1476	139.01234	693.466	-1206.1221	299.12653	723.14978	-1366.9764	304.4258	361.6584	-1081.4842	283.7685	404.9969	-1343.5508	465.623	444.4567	-1172.3578	461.0968	441.4088	-1239.1665	239.36772	399.91788	-912.56964	127.9721	357.00613	-842.7962	216.65741	180.47426	-900.09357	299.10721	61.813248	-978.52844	316.33539	54.95797	-1040.4847	160.78975	39.930111	-943.21185	348.20529	405.68875	-1412.3835	110.37202	330.40952	-1570.6683	138.55873	254.92046	-1555.1307	288.39218	67.411232	-1433.7123	310.43829	55.519772	-1356.9204	163.38737	40.304462	-1469.3501	
1288	6.435	265.6792	801.56598	-1221.1997	139.01527	692.94019	-1206.1565	299.07657	722.75751	-1366.9783	304.6442	361.1685	-1081.5145	283.9642	404.6229	-1343.5198	465.8508	444.0469	-1172.4731	461.2326	440.9463	-1239.1385	239.9722	400.00781	-912.37506	128.56194	357.15973	-842.50848	216.9303	180.56412	-899.92084	299.19934	61.758678	-978.53351	316.38199	54.940609	-1040.4976	160.88628	39.930031	-943.2348	348.60162	405.358	-1412.2133	110.6788	330.57202	-1570.6445	138.79366	255.06946	-1555.1362	288.43881	67.403488	-1433.7278	310.48962	55.49683	-1356.8728	163.43347	40.336231	-1469.4021	
